<svg width="825" height="825" xmlns="http://www.w3.org/2000/svg" xmlns:xlink="http://www.w3.org/1999/xlink" xml:space="preserve" overflow="hidden"><defs><clipPath id="clip0"><rect x="921" y="495" width="825" height="825"/></clipPath></defs><g clip-path="url(#clip0)" transform="translate(-921 -495)"><path d="M921 632.503C921 556.562 982.562 495 1058.5 495L1608.5 495C1684.44 495 1746 556.562 1746 632.503L1746 1182.5C1746 1258.44 1684.44 1320 1608.5 1320L1058.5 1320C982.562 1320 921 1258.44 921 1182.5Z" fill="#D2ECB6" fill-rule="evenodd"/><path d="M1427.68 1122.09C1428.6 1136.85 1431.35 1151.88 1435.64 1166.41 1442.78 1190.63 1454.21 1213.51 1468.64 1231.57 1519.16 1294.87 1579.74 1271.3 1580.87 1187.91L1504.1 1148.44ZM1596.23 997.252 1416.1 1093.38 1587.45 1173.13ZM1279.14 914.427 1242.27 1264.68 1361.83 1085.72ZM1268.29 910.96 1169.26 1000.05 1219.03 1259.69ZM1106.52 865.181 1168.71 984.431 1265.22 886.916ZM1453.6 860.088 1407.51 1068.93 1597.49 978.69ZM1433.26 858.681 1290.48 891.976 1377.35 1070.14ZM1605.27 766.988 1605.2 964.733 1675.56 821.564ZM1583.93 756.206 1461.09 843.226 1593.78 959.877ZM1218.07 734.279 1290.38 871.486 1411.49 833.941ZM1199.37 732.966 1124.21 857.179 1259.73 873.255ZM1673.54 683.785 1614.79 744.48 1679.21 804.181C1710.71 770.511 1708.19 716.922 1673.54 683.785ZM1417.82 648.812 1227.5 718.933 1429.06 822.604ZM1536.9 638.742 1462.86 822.123 1589.47 735.954ZM1082.71 637.186C1070.47 658.043 1063 681.436 1060.26 705.266 1055.7 744.982 1064.26 785.911 1085.8 818.331L1186.1 722.074ZM1531.11 617.798 1431.37 630.92 1453.69 801.701ZM1572.76 612.369C1561.43 611.408 1550.46 612.727 1540.39 616.58L1597.14 721.815 1669.17 675.669C1643.88 638.65 1606.73 615.252 1572.76 612.369ZM1246.96 579.018 1215.06 698.419 1401.14 631.796ZM1209.43 566.046C1184.77 567.304 1159.85 574.039 1137.05 585.37 1118.81 594.434 1101.92 606.44 1087.59 620.936L1190.27 690.187 1233.9 566.646C1225.83 565.816 1217.64 565.627 1209.43 566.046ZM1058.5 495 1608.5 495C1684.44 495 1746 556.562 1746 632.503L1746 1182.5C1746 1258.44 1684.44 1320 1608.5 1320L1058.5 1320C982.562 1320 921 1258.44 921 1182.5L921 632.503C921 556.562 982.562 495 1058.5 495Z" fill="#74B230" fill-rule="evenodd"/></g></svg>